<?xml version="1.0" encoding="UTF-8" standalone="no"?>
<svg
   xmlns:dc="http://purl.org/dc/elements/1.1/"
   xmlns:cc="http://creativecommons.org/ns#"
   xmlns:rdf="http://www.w3.org/1999/02/22-rdf-syntax-ns#"
   xmlns:svg="http://www.w3.org/2000/svg"
   xmlns="http://www.w3.org/2000/svg"
   xmlns:sodipodi="http://sodipodi.sourceforge.net/DTD/sodipodi-0.dtd"
   xmlns:inkscape="http://www.inkscape.org/namespaces/inkscape"
   inkscape:version="1.0rc1 (09960d6, 2020-04-09)"
   sodipodi:docname="DRAM.svg"
   id="svg991"
   viewBox="0 0 18750.001 8333.3336"
   height="80"
   width="180"
   version="1.1">
  <metadata
     id="metadata997">
    <rdf:RDF>
      <cc:Work
         rdf:about="">
        <dc:format>image/svg+xml</dc:format>
        <dc:type
           rdf:resource="http://purl.org/dc/dcmitype/StillImage" />
        <dc:title>SVG Picture created as DRAM.svg date 2021/05/09 17:10:16 </dc:title>
      </cc:Work>
    </rdf:RDF>
  </metadata>
  <defs
     id="defs995" />
  <sodipodi:namedview
     inkscape:current-layer="svg991"
     inkscape:window-maximized="1"
     inkscape:window-y="25"
     inkscape:window-x="1680"
     inkscape:cy="50.059637"
     inkscape:cx="147.15078"
     inkscape:zoom="3.299372"
     units="px"
     showgrid="false"
     id="namedview993"
     inkscape:window-height="1302"
     inkscape:window-width="2560"
     inkscape:pageshadow="2"
     inkscape:pageopacity="0"
     guidetolerance="10"
     gridtolerance="10"
     objecttolerance="10"
     borderopacity="1"
     bordercolor="#666666"
     pagecolor="#ffffff" />
  <title
     id="title833">SVG Picture created as DRAM.svg date 2021/05/09 17:10:16 </title>
  <desc
     id="desc835">Picture generated by Eeschema-SVG </desc>
  <g
     id="g837"
     style="fill:#000000;fill-opacity:1;stroke:#000000;stroke-linecap:round;stroke-linejoin:round;stroke-opacity:1" />
  <g
     transform="translate(-27025.047,-16808.531)"
     id="g859"
     style="fill:#000000;fill-opacity:0;stroke:#000000;stroke-width:0;stroke-linecap:round;stroke-linejoin:round;stroke-opacity:1">
    <g
       id="g839" />
    <g
       id="g843"
       style="fill:#000000;fill-opacity:0;stroke:#000000;stroke-width:60;stroke-linecap:round;stroke-linejoin:round;stroke-opacity:1">
      <path
         inkscape:connector-curvature="0"
         id="path841"
         d="M 43000,23500 V 22500"
         style="fill:none;fill-opacity:0;stroke:#000000;stroke-width:60;stroke-linecap:round;stroke-linejoin:round;stroke-opacity:1" />
    </g>
    <g
       id="g847"
       style="fill:#000000;fill-opacity:1;stroke:#000000;stroke-width:60;stroke-linecap:round;stroke-linejoin:round;stroke-opacity:1">
      <path
         inkscape:connector-curvature="0"
         id="path845"
         d="m 43300,23000 h -600 l 300,-500 z"
         style="fill:#000000;fill-opacity:1;fill-rule:evenodd;stroke:#000000;stroke-width:60;stroke-linecap:round;stroke-linejoin:round;stroke-opacity:1" />
    </g>
    <g
       id="g857"
       style="fill:#000000;fill-opacity:0;stroke:#000000;stroke-width:60;stroke-linecap:round;stroke-linejoin:round;stroke-opacity:1">
      <text
         id="text849"
         opacity="0"
         text-anchor="middle"
         lengthAdjust="spacingAndGlyphs"
         font-size="660px"
         textLength="1440"
         y="22040"
         x="43150">VSS</text>
      <path
         inkscape:connector-curvature="0"
         id="path851"
         d="m 42500,21510 170,500 170,-500" />
      <path
         inkscape:connector-curvature="0"
         id="path853"
         d="m 42980,21990 70,20 h 120 l 50,-20 20,-30 20,-40 v -50 l -20,-50 -20,-20 -50,-30 -100,-20 -40,-20 -30,-30 -20,-50 v -40 l 20,-50 30,-20 40,-30 h 120 l 70,30" />
      <path
         inkscape:connector-curvature="0"
         id="path855"
         d="m 43450,21990 80,20 h 120 l 40,-20 30,-30 20,-40 v -50 l -20,-50 -30,-20 -40,-30 -100,-20 -50,-20 -20,-30 -30,-50 v -40 l 30,-50 20,-20 50,-30 h 120 l 70,30" />
    </g>
  </g>
  <g
     transform="translate(-27025.047,-16808.531)"
     id="g905"
     style="fill:#000000;fill-opacity:0;stroke:#000000;stroke-width:0;stroke-linecap:round;stroke-linejoin:round;stroke-opacity:1">
    <g
       id="g861" />
    <g
       id="g865"
       style="fill:#000000;fill-opacity:0;stroke:#000000;stroke-width:100;stroke-linecap:round;stroke-linejoin:round;stroke-opacity:1">
      <circle
         id="circle863"
         r="1100"
         cy="21000"
         cx="33650" />
    </g>
    <g
       id="g871"
       style="fill:#000000;fill-opacity:1;stroke:#000000;stroke-width:60;stroke-linecap:round;stroke-linejoin:round;stroke-opacity:1">
      <circle
         id="circle867"
         r="100"
         cy="21700"
         cx="34000" />
      <circle
         id="circle869"
         r="100"
         cy="20300"
         cx="34000" />
    </g>
    <g
       id="g875"
       style="fill:#000000;fill-opacity:0;stroke:#000000;stroke-width:60;stroke-linecap:round;stroke-linejoin:round;stroke-opacity:1">
      <path
         inkscape:connector-curvature="0"
         id="path873"
         d="M 33100,21000 H 32000"
         style="fill:none;fill-opacity:0;stroke:#000000;stroke-width:60;stroke-linecap:round;stroke-linejoin:round;stroke-opacity:1" />
    </g>
    <g
       id="g885"
       style="fill:#000000;fill-opacity:0;stroke:#000000;stroke-width:100;stroke-linecap:round;stroke-linejoin:round;stroke-opacity:1">
      <path
         inkscape:connector-curvature="0"
         id="path877"
         d="m 33100,20250 v 1500"
         style="fill:none;fill-opacity:0;stroke:#000000;stroke-width:100;stroke-linecap:round;stroke-linejoin:round;stroke-opacity:1" />
      <path
         inkscape:connector-curvature="0"
         id="path879"
         d="m 33300,21500 v 400"
         style="fill:none;fill-opacity:0;stroke:#000000;stroke-width:100;stroke-linecap:round;stroke-linejoin:round;stroke-opacity:1" />
      <path
         inkscape:connector-curvature="0"
         id="path881"
         d="m 33300,20800 v 400"
         style="fill:none;fill-opacity:0;stroke:#000000;stroke-width:100;stroke-linecap:round;stroke-linejoin:round;stroke-opacity:1" />
      <path
         inkscape:connector-curvature="0"
         id="path883"
         d="m 33300,20100 v 400"
         style="fill:none;fill-opacity:0;stroke:#000000;stroke-width:100;stroke-linecap:round;stroke-linejoin:round;stroke-opacity:1" />
    </g>
    <g
       id="g893"
       style="fill:#000000;fill-opacity:0;stroke:#000000;stroke-width:60;stroke-linecap:round;stroke-linejoin:round;stroke-opacity:1">
      <path
         inkscape:connector-curvature="0"
         id="path887"
         d="m 34000,20000 v 300"
         style="fill:none;fill-opacity:0;stroke:#000000;stroke-width:60;stroke-linecap:round;stroke-linejoin:round;stroke-opacity:1" />
      <path
         inkscape:connector-curvature="0"
         id="path889"
         d="m 34000,22000 v -1000 h -700"
         style="fill:none;fill-opacity:0;stroke:#000000;stroke-width:60;stroke-linecap:round;stroke-linejoin:round;stroke-opacity:1" />
      <path
         inkscape:connector-curvature="0"
         id="path891"
         d="m 33300,21700 h 1000 v -1400 h -1000"
         style="fill:none;fill-opacity:0;stroke:#000000;stroke-width:60;stroke-linecap:round;stroke-linejoin:round;stroke-opacity:1" />
    </g>
    <g
       id="g897"
       style="fill:#000000;fill-opacity:1;stroke:#000000;stroke-width:60;stroke-linecap:round;stroke-linejoin:round;stroke-opacity:1">
      <path
         inkscape:connector-curvature="0"
         id="path895"
         d="m 33400,21000 400,-150 v 300 z"
         style="fill:#000000;fill-opacity:1;fill-rule:evenodd;stroke:#000000;stroke-width:60;stroke-linecap:round;stroke-linejoin:round;stroke-opacity:1" />
    </g>
    <g
       id="g903"
       style="fill:#000000;fill-opacity:0;stroke:#000000;stroke-width:60;stroke-linecap:round;stroke-linejoin:round;stroke-opacity:1">
      <path
         inkscape:connector-curvature="0"
         id="path899"
         d="m 34100,20800 50,50 h 300 l 50,50"
         style="fill:none;fill-opacity:0;stroke:#000000;stroke-width:60;stroke-linecap:round;stroke-linejoin:round;stroke-opacity:1" />
      <path
         inkscape:connector-curvature="0"
         id="path901"
         d="m 34300,20850 -150,250 h 300 z"
         style="fill:none;fill-opacity:0;stroke:#000000;stroke-width:60;stroke-linecap:round;stroke-linejoin:round;stroke-opacity:1" />
    </g>
  </g>
  <g
     transform="translate(-27025.047,-16808.531)"
     id="g933"
     style="fill:#000000;fill-opacity:0;stroke:#000000;stroke-width:0;stroke-linecap:round;stroke-linejoin:round;stroke-opacity:1">
    <g
       id="g907" />
    <g
       id="g913"
       style="fill:#000000;fill-opacity:0;stroke:#000000;stroke-width:200;stroke-linecap:round;stroke-linejoin:round;stroke-opacity:1">
      <path
         inkscape:connector-curvature="0"
         id="path909"
         d="m 38700,21300 h 1600"
         style="fill:none;fill-opacity:0;stroke:#000000;stroke-width:200;stroke-linecap:round;stroke-linejoin:round;stroke-opacity:1" />
      <path
         inkscape:connector-curvature="0"
         id="path911"
         d="m 38700,20700 h 1600"
         style="fill:none;fill-opacity:0;stroke:#000000;stroke-width:200;stroke-linecap:round;stroke-linejoin:round;stroke-opacity:1" />
    </g>
    <g
       id="g931"
       style="fill:#000000;fill-opacity:0;stroke:#000000;stroke-width:60;stroke-linecap:round;stroke-linejoin:round;stroke-opacity:1">
      <path
         inkscape:connector-curvature="0"
         id="path915"
         d="M 39500,20600 V 19500" />
      <path
         inkscape:connector-curvature="0"
         id="path917"
         d="m 39500,21400 v 1100" />
      <text
         id="text919"
         opacity="0"
         text-anchor="middle"
         lengthAdjust="spacingAndGlyphs"
         font-size="660px"
         textLength="990"
         y="20810"
         x="41140">C?</text>
      <path
         inkscape:connector-curvature="0"
         id="path921"
         d="m 41080,20730 -30,30 -70,20 h -50 l -70,-20 -50,-50 -20,-50 -20,-90 v -70 l 20,-100 20,-50 50,-40 70,-30 h 50 l 70,30 30,20" />
      <path
         inkscape:connector-curvature="0"
         id="path923"
         d="m 41360,20730 30,30 -30,20 -20,-20 20,-30 v 50" />
      <path
         inkscape:connector-curvature="0"
         id="path925"
         d="m 41270,20310 40,-30 h 120 l 50,30 20,40 v 50 l -20,50 -20,20 -50,30 -20,20 -30,50 v 20" />
      <text
         id="text927"
         opacity="0"
         text-anchor="middle"
         lengthAdjust="spacingAndGlyphs"
         font-size="660px"
         textLength="560"
         y="21720"
         x="40930">C</text>
      <path
         inkscape:connector-curvature="0"
         id="path929"
         d="m 41080,21640 -20,30 -80,20 h -40 l -70,-20 -50,-50 -30,-50 -20,-90 v -70 l 20,-100 30,-50 50,-40 70,-30 h 40 l 80,30 20,20" />
    </g>
  </g>
  <g
     transform="translate(-27025.047,-16808.531)"
     id="g951"
     style="fill:#000000;fill-opacity:0;stroke:#000000;stroke-width:100;stroke-linecap:round;stroke-linejoin:round;stroke-opacity:1">
    <path
       inkscape:connector-curvature="0"
       id="path935"
       d="M 34000,20000 V 18500" />
    <path
       inkscape:connector-curvature="0"
       id="path937"
       d="m 34000,18500 h 5500" />
    <path
       inkscape:connector-curvature="0"
       id="path939"
       d="m 34000,22000 v 1500" />
    <path
       inkscape:connector-curvature="0"
       id="path941"
       d="m 39500,22500 v 1000" />
    <path
       inkscape:connector-curvature="0"
       id="path943"
       d="m 39500,23500 h 3500" />
    <path
       inkscape:connector-curvature="0"
       id="path945"
       d="M 32000,21000 H 29000" />
    <path
       inkscape:connector-curvature="0"
       id="path947"
       d="M 34000,23500 H 29000" />
    <path
       inkscape:connector-curvature="0"
       id="path949"
       d="m 39500,18500 v 1000" />
  </g>
  <g
     transform="translate(-27025.047,-16808.531)"
     id="g989"
     style="fill:#000000;fill-opacity:0;stroke:#000000;stroke-width:60;stroke-linecap:round;stroke-linejoin:round;stroke-opacity:1">
    <text
       id="text953"
       opacity="0"
       text-anchor="start"
       lengthAdjust="spacingAndGlyphs"
       font-size="660px"
       textLength="2940"
       y="20900"
       x="29000">Address</text>
    <path
       inkscape:connector-curvature="0"
       id="path955"
       d="m 29120,20730 h 240" />
    <path
       inkscape:connector-curvature="0"
       id="path957"
       d="m 29070,20870 170,-500 170,500" />
    <path
       inkscape:connector-curvature="0"
       id="path959"
       d="m 29790,20870 v -500" />
    <path
       inkscape:connector-curvature="0"
       id="path961"
       d="m 29790,20850 -50,20 h -100 l -40,-20 -30,-30 -20,-40 v -150 l 20,-40 30,-30 40,-20 h 100 l 50,20" />
    <path
       inkscape:connector-curvature="0"
       id="path963"
       d="m 30240,20870 v -500" />
    <path
       inkscape:connector-curvature="0"
       id="path965"
       d="m 30240,20850 -50,20 h -90 l -50,-20 -20,-30 -30,-40 v -150 l 30,-40 20,-30 50,-20 h 90 l 50,20" />
    <path
       inkscape:connector-curvature="0"
       id="path967"
       d="m 30480,20870 v -330" />
    <path
       inkscape:connector-curvature="0"
       id="path969"
       d="m 30480,20630 20,-40 30,-30 40,-20 h 50" />
    <path
       inkscape:connector-curvature="0"
       id="path971"
       d="m 30980,20850 -50,20 h -100 l -40,-20 -30,-50 v -190 l 30,-50 40,-20 h 100 l 50,20 20,50 v 50 l -240,40" />
    <path
       inkscape:connector-curvature="0"
       id="path973"
       d="m 31190,20850 50,20 h 90 l 50,-20 30,-50 v -20 l -30,-50 -50,-30 h -70 l -40,-20 -30,-50 v -20 l 30,-50 40,-20 h 70 l 50,20" />
    <path
       inkscape:connector-curvature="0"
       id="path975"
       d="m 31600,20850 40,20 h 100 l 50,-20 20,-50 v -20 l -20,-50 -50,-30 h -70 l -50,-20 -20,-50 v -20 l 20,-50 50,-20 h 70 l 50,20" />
    <text
       id="text977"
       opacity="0"
       text-anchor="start"
       lengthAdjust="spacingAndGlyphs"
       font-size="660px"
       textLength="1080"
       y="23400"
       x="29000">Bit</text>
    <path
       inkscape:connector-curvature="0"
       id="path979"
       d="m 29310,23110 70,20 30,30 20,40 v 80 l -20,40 -30,30 -50,20 h -190 v -500 h 170 l 50,30 20,20 30,50 v 40 l -30,50 -20,30 -50,20 h -170" />
    <path
       inkscape:connector-curvature="0"
       id="path981"
       d="m 29640,23370 v -330" />
    <path
       inkscape:connector-curvature="0"
       id="path983"
       d="m 29640,22870 -20,30 20,20 30,-20 -30,-30 v 50" />
    <path
       inkscape:connector-curvature="0"
       id="path985"
       d="m 29810,23040 h 190" />
    <path
       inkscape:connector-curvature="0"
       id="path987"
       d="m 29880,22870 v 430 l 30,50 40,20 h 50" />
  </g>
</svg>
